<?xml version="1.0" encoding="utf-8"?>
<!-- Generator: Adobe Illustrator 19.1.0, SVG Export Plug-In . SVG Version: 6.00 Build 0)  -->
<svg version="1.1" id="Ebene_1" xmlns="http://www.w3.org/2000/svg" xmlns:xlink="http://www.w3.org/1999/xlink" x="0px" y="0px"
	 viewBox="6 285.4 623 222.6" style="enable-background:new 6 285.4 623 222.6;" xml:space="preserve">
<style type="text/css">
	.st0{fill:#575651;}
	.st1{fill:#FE780D;}
</style>
<g>
	<path class="st0" d="M183.4,482.1c1.7,1.1,4,1.6,5.2,1.6c1.9,0,4.3-0.8,4.3-3.3c0-4.1-9.9-3.8-9.9-10.2c0-4.7,3.5-7,8-7
		c2,0,3.6,0.4,5.2,0.9l-0.4,3.7c-0.9-0.6-3.4-1.2-4.4-1.2c-2.1,0-4,0.9-4,2.8c0,4.6,9.9,3.3,9.9,10.6c0,4.9-3.9,7.1-7.9,7.1
		c-2.1,0-4.3-0.2-6.2-1.2L183.4,482.1"/>
	<path class="st0" d="M221.2,485.7c-1.6,0.6-3.4,1.5-7.2,1.5c-8.1,0-11.8-4.9-11.8-12.3c0-6.7,4.2-11.5,10.7-11.5
		c7.6,0,10,5.5,10,12.9h-16.3c0,4.5,3.5,7.6,7.5,7.6c2.8,0,6-1.4,7-2.3v4.1 M218.5,473c0-3.5-2.1-6.3-5.7-6.3
		c-4.1,0-5.8,3.4-6.1,6.3H218.5z"/>
	<path class="st0" d="M230.3,465.4c2.1-1.2,4.6-2.1,7.5-2.1c6.5,0,9.2,3.2,9.2,9.4v9.4c0,2.6,0.1,3.8,0.2,4.5h-3.9v-2.9h-0.1
		c-1,1.4-3.2,3.5-7.1,3.5c-4.9,0-8.3-2.1-8.3-7.1c0-5.7,6.2-7.5,10.6-7.5c1.6,0,2.8,0,4.5,0.1c0-3.9-1.4-5.9-5.6-5.9
		c-2.4,0-4.9,0.9-6.6,2.3L230.3,465.4 M242.7,475.8c-0.9,0-1.8-0.1-2.7-0.1c-2.3,0-7.9,0.4-7.9,4.4c0,2.4,2.3,3.7,4.2,3.7
		c4.2,0,6.3-2.6,6.3-6v-2H242.7z"/>
	<path class="st0" d="M254.3,482.1c1.7,1.1,4,1.6,5.2,1.6c1.9,0,4.3-0.8,4.3-3.3c0-4.1-9.9-3.8-9.9-10.2c0-4.7,3.5-7,8-7
		c2,0,3.6,0.4,5.2,0.9l-0.4,3.7c-0.9-0.6-3.4-1.2-4.4-1.2c-2.1,0-4,0.9-4,2.8c0,4.6,9.9,3.3,9.9,10.6c0,4.9-3.9,7.1-7.9,7.1
		c-2.1,0-4.3-0.2-6.3-1.2L254.3,482.1"/>
	<path class="st0" d="M284.3,463.3c6.9,0,11.6,5,11.6,11.9c0,6.5-4.7,11.9-11.6,11.9s-11.6-5.4-11.6-11.9
		C272.7,468.3,277.3,463.3,284.3,463.3 M284.3,483.7c4.9,0,7.1-4.5,7.1-8.5c0-4.3-2.6-8.5-7.1-8.5s-7.1,4.2-7.1,8.5
		C277.2,479.3,279.4,483.7,284.3,483.7z"/>
	<path class="st0" d="M301.5,463.8h4.1v3.6h0.1c1.3-2.6,4.3-4.2,7.5-4.2c5.9,0,8.5,3.7,8.5,9.8v13.5h-4.2v-11.8
		c0-5.3-1.2-7.9-4.8-8.1c-4.8,0-6.9,3.8-6.9,9.4v10.5h-4.2v-22.7"/>
	<path class="st0" d="M333.7,454v4.7H329V454H333.7z M329.3,486.6v-22.8h4.2v22.8H329.3z"/>
	<path class="st0" d="M341.2,463.8h4v3.6h0.1c1.2-2.6,4.3-4.2,7.4-4.2c5.9,0,8.5,3.7,8.5,9.8v13.5H357v-11.8c0-5.3-1.2-7.9-4.8-8.1
		c-4.8,0-6.9,3.8-6.9,9.4v10.5h-4.2v-22.7"/>
	<path class="st0" d="M389.4,485.6c0,6.9-3.6,10.9-11.7,10.9c-2.4,0-4.5-0.3-8.2-1.6l0.4-3.9c3.2,1.5,5.1,2.1,8.2,2.1
		c4.4,0,7-3,7-7.8v-2.2H385c-1.8,2.4-4.7,3.5-7.6,3.5c-6.5,0-9.7-5.3-9.7-11.2s3.3-12.1,10.2-12.1c4,0,6.3,1.5,7.5,3.9h0.1v-3.4h3.9
		L389.4,485.6 M385.2,475.5c0-4.7-2.2-8.8-6.7-8.8c-4.2,0-6.3,4.6-6.3,8.5c0,4.3,2.4,8,6.3,8C382.5,483.2,385.2,479.7,385.2,475.5z"
		/>
	<path class="st0" d="M408.2,492.7c0.5,0.2,1.2,0.4,2,0.4c3.8,0,5-5.2,5-5.6c0-0.5-0.5-1.7-0.8-2.4l-7.7-21.2h4.6l6.1,18.8h0.1
		l6.2-18.8h4.2l-8.4,23.2c-1.6,4.4-3.2,9.4-8.7,9.4c-1.3,0-2.1-0.2-2.9-0.3L408.2,492.7"/>
	<path class="st0" d="M441.3,463.3c6.9,0,11.5,5,11.5,11.9c0,6.5-4.7,11.9-11.5,11.9c-6.9,0-11.6-5.4-11.6-11.9
		C429.7,468.3,434.4,463.3,441.3,463.3 M441.3,483.7c4.9,0,7.1-4.5,7.1-8.5c0-4.3-2.6-8.5-7.1-8.5s-7.2,4.2-7.2,8.5
		C434.2,479.3,436.4,483.7,441.3,483.7z"/>
	<path class="st0" d="M477.1,486.6H473V483h-0.1c-1.3,2.6-4.3,4.1-7.5,4.1c-5.9,0-8.5-3.7-8.5-9.8v-13.5h4.2v11.8
		c0,5.3,1.2,7.9,4.8,8.1c4.8,0,6.9-3.8,6.9-9.4v-10.5h4.2v22.8"/>
	<path class="st0" d="M484.2,463.8h3.9v3.5h0.1c1.1-2.4,3.5-4.1,5.9-4.1c1.2,0,1.9,0.1,2.8,0.3v3.7c-0.8-0.3-1.6-0.4-2.3-0.4
		c-3.7,0-6.2,3.6-6.2,9.3v10.4h-4.2V463.8"/>
	<rect x="515.4" y="453.1" class="st0" width="4.2" height="33.5"/>
	<path class="st0" d="M532.3,454v4.7h-4.7V454H532.3z M527.8,486.6v-22.8h4.2v22.8H527.8z"/>
	<path class="st0" d="M542.4,467.2H537v-3.4h5.4v-2.1c0-5.5,1.4-9.1,7.6-9.1c1.1,0,2,0.1,2.8,0.3l-0.2,3.4c-0.5-0.2-1.3-0.3-2-0.3
		c-3.6,0-4.1,2.3-4.1,5.4v2.5h6v3.4h-6v19.4h-4.2v-19.5"/>
	<path class="st0" d="M573.4,485.7c-1.6,0.6-3.4,1.5-7.2,1.5c-8.1,0-11.8-4.9-11.8-12.3c0-6.7,4.2-11.5,10.7-11.5
		c7.6,0,10,5.5,10,12.9h-16.3c0,4.5,3.5,7.6,7.5,7.6c2.8,0,6-1.4,7-2.3L573.4,485.7 M570.7,473c0-3.5-2.1-6.3-5.7-6.3
		c-4.1,0-5.8,3.4-6.1,6.3H570.7z"/>
</g>
<g>
	<g>
		<path class="st1" d="M531.6,426.6c0-6,4.9-10.9,10.9-10.9s10.9,4.9,10.9,10.9s-4.9,10.9-10.9,10.9
			C536.6,437.5,531.6,432.6,531.6,426.6 M550.8,426.6c0-5.1-3.7-8.8-8.3-8.8s-8.3,3.7-8.3,8.8c0,5.1,3.7,8.8,8.3,8.8
			C547.2,435.4,550.8,431.7,550.8,426.6z M538.4,420.4h4.6c3,0,4.6,1,4.6,3.6c0,2.1-1.2,3.1-3.2,3.3l3.3,5.4h-2.4l-3.2-5.3h-1.4v5.3
			h-2.3L538.4,420.4L538.4,420.4z M540.7,425.7h2c1.4,0,2.5-0.2,2.5-1.8c0-1.5-1.3-1.7-2.5-1.7h-2.1L540.7,425.7L540.7,425.7z"/>
	</g>
	<g>
		<g>
			<path class="st1" d="M394,421.1v-18c0-15.3-8.6-21.9-20.8-21.9c-12.2,0-16.7,4.5-19.3,7.2c-2.7-2.7-7.1-7.2-19.3-7.2
				c-12.2,0-20.8,6.6-20.8,21.9v19c0,7.1-1.1,12.8-1.2,13.6h21.1v-30.8c0-6.6,0-11.3,5.3-11.3s5.3,4.7,5.3,11.3v30.8h19.3V405
				c0-6.6,0-11.4,5.3-11.4s5.3,4.7,5.3,11.4c0,4.2,0,20.1,0,20.1c0,8.2,5.5,11.9,12.1,11.9c3,0,7.4,0,11.6-0.9
				c1.3-0.3,1.3-0.5,0.3-1.5C396.6,433.2,394,429.6,394,421.1z M57.4,418.2c-5.5-7.4-10.6-15.5-10.6-15.5l25.1-24.4
				c-4.2-0.3-10.7-1.4-16.4-0.3c-6.1,1.2-9.7,4.2-15.7,10.6c-5.9,6.4-11.6,12.7-11.6,12.7v-44.2h-20v64.8c0,7.1-1.1,12.8-1.2,13.8
				h22.4c-0.1-1-1.2-6.7-1.2-13.8v-13.2l13.1,18.7c4.1,5.9,9.6,9.1,16.1,9.3c6.6,0.1,10.3-0.4,15.7-1v-0.4
				C69.1,432.8,62.9,425.6,57.4,418.2z M89.6,377.7c5.7,0,10.4-4.7,10.4-10.4c0-5.8-4.7-10.4-10.4-10.4c-5.8,0-10.4,4.7-10.4,10.4
				S83.8,377.7,89.6,377.7z M99.6,385.2h-20V422c0,7.1-1.1,12.8-1.2,13.8h22.4c-0.2-1-1.2-6.7-1.2-13.8
				C99.6,422,99.6,385.2,99.6,385.2z M275.9,380c-15.7,0-30.5,11.7-30.5,28.8c0,17,14.9,28.8,30.7,28.8c15.5,0,30.7-11.4,30.7-28.8
				C306.7,390.8,290.7,380,275.9,380z M276.2,426.1c-9.3,0-10.7-10.3-10.7-17.3c0-7.4,1.5-17.3,10.7-17.3c8.6,0,10.4,9.8,10.4,17.2
				C286.5,415.7,284.9,426.1,276.2,426.1z M524.3,434.6c-1.4-1.6-4.1-5.3-4.1-13.4V404c0-7.3-1.7-22.8-27.1-22.8
				c-25.4,0-27,15.5-27,22.6v19.7c0,8-13.2,8-13.2,0v-19.7c0-7.2,0.5-22.6-25.3-22.6c-14.9,0-20.9,7.3-18.8,17.1
				c3.6-2.5,11-5.1,16.6-5.1c2.9,0,7.3,0.7,7.3,4.2c0,3.2-3,4.7-7.2,5.9c-9.2,2.7-23.8,6.6-23.8,19.1c0,12.5,14.7,18.3,31.1,11.8
				c1.7-0.7,2.9-1.4,3.8-2.1c2.3,2.2,5.7,3.7,11,3.7c4.4,0,39.9,0,39.9,0c-0.9-1.3-1.6-6.1-1.6-12.5v-19.4c0-2.5,0.1-10.1,7.2-10.1
				c7.2,0,7.2,7.6,7.2,10.1v21.3c0,8.2,5.5,11.9,12,11.9c2.9,0,7.3-0.1,11.7-0.9C525.3,435.8,525.2,435.7,524.3,434.6z M419.8,423.1
				c0-6.7,8.3-10.4,13-11.5c0,0.1,0,4.7,0,9.4c0,1.9,0.2,4.1,0.9,6.2C428.6,429.6,419.8,429.3,419.8,423.1z"/>
			<path class="st1" d="M162.8,418.2c-5.5-7.4-10.6-15.5-10.6-15.5l25.1-24.4c-4.2-0.3-10.7-1.4-16.4-0.3
				c-6.1,1.2-9.8,4.2-15.7,10.6c-5.9,6.4-11.6,12.7-11.6,12.7v-44.2h-20v64.8c0,7.1-1.1,12.8-1.2,13.8h22.4c-0.1-1-1.2-6.7-1.2-13.8
				v-13.2l13.1,18.7c4.1,5.9,9.6,9.1,16.2,9.3c6.6,0.1,10.3-0.4,15.7-1v-0.4C174.6,432.8,168.3,425.6,162.8,418.2z"/>
			<path class="st1" d="M253.4,438.4c-8.1-4.3-15.6-13.5-20.4-20.2c-1.1-1.6-10.8-15.6-10.8-15.6l25.1-24.4
				c-4.2-0.3-10.7-1.4-16.4-0.3c-6,1.2-9.7,4.2-15.7,10.6c-5.5,5.9-10.7,11.7-11.5,12.5v-43.9h-0.1h-19.9v64.8
				c0,7.1-1,12.8-1.2,13.8H205c-0.1-1-1.2-6.7-1.2-13.8v-13.2c0,0,6.1,8.4,13.8,19.4c9.5,13.7,17.6,12.3,35.5,11.4
				C254.7,439.3,254.3,438.8,253.4,438.4z"/>
		</g>
		<g>
			<path class="st1" d="M554.6,346.8c-1.1,3.5-3.6,1.8-3.6-0.2c0-2.7,0.9-3.4,0.9-3.4l-1.8-2.2H542v-2.5h6.5l2.9-6.4l-1.4-2.4h-3.7
				v-3h5.2l0.9-2.2h2.2v-0.3h-8.3v-1.1l-1.7-1l-1.6,1v1.1h-10v-1.1l-1.6-1l-1.7,1v1.1h-8.3v0.2h2.2l0.9,2.2h5.2v3H526l-1.4,2.4
				l2.9,6.4h6.5v2.5h-8.1l-1.8,2.2c0,0,0.9,0.8,0.9,3.4c0,2-2.5,3.7-3.6,0.2c0,0-0.6,6.1,3.2,6.1c2.5,0,3.7-3.7,2.9-9.1h6.6v3.9H532
				v-2l-0.9-0.7l-1,0.7v4.6l2.1,2.1c0,0,2.2-2,6-2s6,2,6,2l2.1-2.1v-4.6l-1-0.7l-0.9,0.7v2H542v-3.9h6.6c-0.9,5.4,0.4,9.1,2.9,9.1
				C555.3,352.9,554.6,346.8,554.6,346.8z M534.2,333.5H531l0.5,1.1h2.7v1.5H529l-1.8-4h7V333.5z M538.1,329.6h-5v-3h5l0,0h5v3
				H538.1L538.1,329.6z M542,336v-1.5h2.7l0.5-1.1H542V332h7l-1.8,4H542z"/>
			<g>
				<path class="st1" d="M514.3,325.9v24.2l23.8,11.8l23.8-11.8v-24.2l-23.8-11.6L514.3,325.9z M538.1,315.6
					c0.5,0.2,22,10.7,22.6,11c0,0.7,0,22.1,0,22.8c-0.6,0.3-22.1,10.9-22.6,11.2c-0.5-0.3-22-10.9-22.6-11.2c0-0.7,0-22.1,0-22.8
					C516.1,326.3,537.6,315.9,538.1,315.6z"/>
			</g>
			<path class="st1" d="M575.9,317.1l-37.8-18.5l-37.8,18.5v41.7l37.8,18.9l37.8-18.9V317.1z M564.3,351.6l-26.2,12.9l-26.2-12.8
				v-27.2l26.2-12.8l26.2,12.7V351.6z"/>
		</g>
	</g>
</g>
</svg>
