<svg width="50px" height="42px" viewBox="0 0 50 42" version="1.1" xmlns="http://www.w3.org/2000/svg" xmlns:xlink="http://www.w3.org/1999/xlink">
    <path d="M21.2700791,7.36462758 C21.2433394,7.1842513 21.1284337,6.97318861 20.9860366,6.86295272 C20.7255122,6.66151294 20.7233645,6.52101831 20.9690693,6.32171696 C21.0674371,6.24195365 21.1266081,6.11428959 21.203713,6.00843747 C21.0791424,5.92225888 20.9571491,5.76786449 20.8294643,5.76305303 C20.4824922,5.75000863 20.4414698,5.52151775 20.3838022,5.27217722 C20.2636345,4.75211188 20.1499101,4.22969428 19.9991368,3.7183965 C19.9556444,3.57105891 19.8133547,3.43291656 19.6823408,3.33604583 C19.5251241,3.21992927 19.2333497,3.19544429 19.1717087,3.05601888 C18.9643416,2.58695502 18.8175416,2.08827395 18.6956557,1.58927212 C18.6822322,1.53399379 18.9696037,1.34207001 19.1324046,1.31918885 C19.8224828,1.22242505 20.5166417,1.13132808 21.2120893,1.09978628 C24.3055211,0.959612425 27.3980937,0.924007624 30.4821826,1.28315636 C31.3729698,1.38687005 31.389615,1.41039274 31.0782959,2.26533567 C30.9931369,2.49949337 30.9191462,2.74049404 30.8055292,2.96064506 C30.7380893,3.09130292 30.6081493,3.2772391 30.4975392,3.28344054 C29.9888401,3.31220238 29.911413,3.67199264 29.8282943,4.04632421 C29.7474308,4.4112467 29.6621644,4.77520689 29.584093,5.14077091 C29.5176195,5.45233965 29.4957123,5.74979478 29.0313646,5.76658143 C28.7293883,5.77748741 28.704152,6.0150666 28.9622065,6.19512211 C29.2793246,6.41623541 29.3764037,6.59757398 28.9342855,6.78800087 C28.8465491,6.8257441 28.7623566,6.97211939 28.7534433,7.07508463 C28.6663513,8.07961049 28.5490831,9.08467097 28.5300753,10.0913353 C28.4896973,12.2311518 29.1643115,14.2329328 29.9236553,16.1875616 C31.4885198,20.2158226 33.6897033,24.3194631 34.4500135,28.5768565 C34.9883518,31.5916102 35.2185927,35.5320241 34.7378146,38.5794958 C34.5584759,39.7162833 34.0993902,40.3357855 32.9515151,40.457355 C30.5593299,40.7107586 27.2337893,40.9676905 24.8322614,40.9979493 C22.6259657,41.0257488 19.4928652,40.7643262 17.2853882,40.6130325 C16.9876,40.5927174 16.6800395,40.5093188 16.4061989,40.3891392 C15.7848493,40.1165968 15.3087963,39.764291 15.2087103,38.9729663 C14.7028033,34.9743225 15.1699431,30.1361971 16.0372122,26.2356002 C16.7963412,22.8211746 18.8078767,19.512601 20.0310311,16.2388839 C20.638098,14.6138935 21.2468832,12.9736135 21.3643661,11.21433 C21.3891729,10.8439545 21.4047442,9.01848666 21.393898,8.82538675 C21.3665139,8.33739781 21.3415998,7.84716353 21.2700791,7.36462758 Z">
    </path>
</svg>