<svg width="50px" height="42px" viewBox="0 0 50 42" version="1.1" xmlns="http://www.w3.org/2000/svg" xmlns:xlink="http://www.w3.org/1999/xlink">
    <path d="M8.51943565,41.2830258 C9.59137768,41.2393518 10.6451965,41.3840402 11.5029284,41.2452939 C13.2415661,41.3272939 14.0383922,40.0562939 13.9985806,38.4896779 C13.9783777,37.6931489 13.6233415,37.277504 13.4477545,36.5347504 C13.2751386,35.8035837 13.4840009,34.7836344 13.49024,34.0417721 C13.5086603,31.8343084 13.3416893,29.5974316 13.4400299,27.3941272 C13.5217328,25.5657649 14.3491603,24.2047431 13.3298052,22.4750185 C11.7343704,19.7681272 11.5353125,17.3128808 11.4761893,14.1306272 C11.4583632,13.1837649 12.0311748,12.6302649 12.1455588,11.8774098 C12.4206748,10.065091 10.59974,9.93585184 9.28209507,10.0181489 C9.16830522,10.018446 7.58624,10.018446 7.47245015,10.0181489 C6.15450812,9.93585184 4.33387044,10.065091 4.60898638,11.8774098 C4.72337044,12.6302649 5.29588493,13.1837649 5.27835594,14.1306272 C5.21923275,17.3128808 5.01987768,19.7681272 3.42474,22.4750185 C2.40538493,24.2047431 3.23281246,25.5657649 3.31451536,27.3941272 C3.41285594,29.5974316 3.24558783,31.8343084 3.26430522,34.0417721 C3.27054435,34.7836344 3.47940667,35.8035837 3.30679073,36.5347504 C3.13120377,37.277504 2.77616754,37.6931489 2.75596464,38.4896779 C2.71615304,40.0562939 3.51297913,41.3272939 5.25161681,41.2452939 C6.1093487,41.3840402 7.16316754,41.2393518 8.23510957,41.2830258 L8.51943565,41.2830258 Z"></path>
    <path d="M30.0644565,28.6654333 C30.0674275,26.2595058 30.0127609,23.8482304 30.010087,21.4458681 C30.0068188,18.7496725 29.7272464,17.3556725 28.3359203,15.0412522 C27.7241884,14.0239768 27.4128261,13.0735493 27.351029,11.8830638 C27.3020072,10.9424406 27.5301812,9.81731739 27.0916594,8.94057101 C26.9876739,8.7326 26.8129783,7.00733188 26.8498188,6.75271594 C26.8403116,6.50820145 26.8311014,6.26338986 26.8215942,6.01857826 C26.9347899,5.92172319 27.0756159,5.87210725 27.2437754,5.87032464 C27.4348116,5.2066 27.4787826,5.66354203 27.4137174,4.55654203 C27.3682609,3.78496957 27.5539493,1.77834638 26.8548696,1.32526667 C26.9133986,1.36299855 24.5966014,1.27505652 24.2276014,1.30238986 C23.8586014,1.27505652 21.5415072,1.36299855 21.6000362,1.32526667 C20.9009565,1.77834638 21.0866449,3.78496957 21.0414855,4.55654203 C20.9761232,5.66354203 21.0203913,5.2066 21.2111304,5.87032464 C21.3792899,5.87210725 21.5201159,5.92172319 21.6333116,6.01857826 C21.6241014,6.26338986 21.6145942,6.50820145 21.605087,6.75271594 C21.6419275,7.00733188 21.4672319,8.7326 21.3632464,8.94057101 C20.9250217,9.81731739 21.1528986,10.9424406 21.1041739,11.8830638 C21.0420797,13.0735493 20.7307174,14.0239768 20.1192826,15.0412522 C18.7276594,17.3556725 18.448087,18.7496725 18.4448188,21.4458681 C18.4421449,23.8482304 18.3874783,26.2595058 18.3904493,28.6654333 C18.3913406,29.3389623 18.0565072,36.3692739 18.4216449,36.4910855 C18.3946087,36.4910855 18.4938406,40.182571 19.277,40.6647667 C19.9104203,41.2607522 20.706058,41.3876145 21.5269493,41.4402014 C22.4096377,41.4402014 23.2843043,41.4835783 24.1580797,41.497542 L24.1580797,41.500513 C24.1812536,41.5002159 24.2044275,41.4993246 24.2276014,41.4990275 C24.2507754,41.4993246 24.2739493,41.5002159 24.2971232,41.500513 L24.2971232,41.497542 C25.1706014,41.4835783 26.0452681,41.4402014 26.9282536,41.4402014 C27.7491449,41.3876145 28.5444855,41.2607522 29.1782029,40.6647667 C29.9613623,40.182571 30.0602971,36.4910855 30.0332609,36.4910855 C30.3983986,36.3692739 30.0635652,29.3389623 30.0644565,28.6654333"></path>
    <path d="M46.1203964,31.929007 C45.4124037,28.5022389 43.8927298,25.3844563 43.0430196,22.0283983 C42.7711718,20.9543766 42.7536428,19.889565 42.7774109,18.7828621 C42.7857298,18.3933621 42.6128167,17.7260723 42.6553022,17.4043114 C42.6671863,17.3160723 43.0593602,17.2622969 43.0688675,17.1704925 C43.0706501,17.1529636 42.9369544,16.4488331 42.9191283,16.4898331 C42.9841935,16.3406882 43.3760703,16.4746809 43.4369761,16.2684925 C43.7037732,15.3673838 43.9628457,15.1175215 44.3758167,14.3943766 C45.1399617,13.0568259 44.0504906,13.1272389 42.9078385,13.0645505 C41.9324544,13.0110723 40.9520196,12.9914636 39.9724761,13.0033476 C38.9929327,12.9914636 38.0124979,13.0110723 37.0371138,13.0645505 C35.8944617,13.1272389 34.8046935,13.0568259 35.5688385,14.3943766 C35.9821066,15.1175215 36.241179,15.3673838 36.507679,16.2684925 C36.5688819,16.4746809 36.9607588,16.3406882 37.0255269,16.4898331 C37.0079979,16.4488331 36.8743022,17.1529636 36.8760848,17.1704925 C36.885295,17.2622969 37.277766,17.3160723 37.289353,17.4043114 C37.3321356,17.7260723 37.1589254,18.3933621 37.1675414,18.7828621 C37.1913095,19.889565 37.1737805,20.9543766 36.9019327,22.0283983 C36.0519254,25.3844563 34.5322515,28.5022389 33.8245559,31.929007 C33.4317877,33.829565 32.0131283,39.1779853 34.1552298,40.3723331 C35.3855269,41.0583404 37.5056428,41.051507 38.8529979,41.0619056 C39.2285341,41.0645795 39.6013964,41.0589346 39.9724761,41.0491302 C40.3435559,41.0589346 40.7164182,41.0645795 41.0919544,41.0619056 C42.4390124,41.051507 44.5594254,41.0583404 45.7894254,40.3723331 C47.931824,39.1779853 46.5131646,33.829565 46.1203964,31.929007"></path>
</svg>