<svg width="50px" height="42px" viewBox="0 0 50 42" version="1.1" xmlns="http://www.w3.org/2000/svg" xmlns:xlink="http://www.w3.org/1999/xlink">
    <g transform="translate(6.000000, 2.000000)">
        <path d="M18.5615914,-2.44249065e-15 L19.7270833,0.0366270606 L20.8879756,0.146363692 L22.0396867,0.328776814 L23.1776714,0.583146525 L24.2974385,0.908468944 L25.3945689,1.30346017 L26.4647326,1.76656136 L27.5037062,2.29594486 L28.5073894,2.88952143 L29.471821,3.54494851 L30.393195,4.25963941 L31.267875,5.03077358 L32.0924091,5.85530771 L32.8635433,6.72998774 L33.5782342,7.6513617 L34.2336613,8.61579335 L34.8272379,9.61947652 L35.3566214,10.6584501 L35.8197225,11.7286138 L36.2147138,12.8257442 L36.5400362,13.9455113 L36.7944059,15.083496 L36.976819,16.2352071 L37.0865557,17.3960994 L37.1231827,18.5615914 L37.0865557,19.7270833 L36.976819,20.8879756 L36.7944059,22.0396867 L36.5400362,23.1776714 L36.2147138,24.2974385 L35.8197225,25.3945689 L35.3566214,26.4647326 L34.8272379,27.5037062 L34.2336613,28.5073894 L33.5782342,29.471821 L32.8635433,30.393195 L32.0924091,31.267875 L31.267875,32.0924091 L30.393195,32.8635433 L29.471821,33.5782342 L28.5073894,34.2336613 L27.5037062,34.8272379 L26.4647326,35.3566214 L25.3945689,35.8197225 L24.2974385,36.2147138 L23.1776714,36.5400362 L22.0396867,36.7944059 L20.8879756,36.976819 L19.7270833,37.0865557 L18.5615914,37.1231827 L17.3960994,37.0865557 L16.2352071,36.976819 L15.083496,36.7944059 L13.9455113,36.5400362 L12.8257442,36.2147138 L11.7286138,35.8197225 L10.6584501,35.3566214 L9.61947652,34.8272379 L8.61579335,34.2336613 L7.6513617,33.5782342 L6.72998774,32.8635433 L5.85530771,32.0924091 L5.03077358,31.267875 L4.25963941,30.393195 L3.54494851,29.471821 L2.88952143,28.5073894 L2.29594486,27.5037062 L1.76656136,26.4647326 L1.30346017,25.3945689 L0.908468944,24.2974385 L0.583146525,23.1776714 L0.328776814,22.0396867 L0.146363692,20.8879756 L0.0366270606,19.7270833 L2.13162821e-14,18.5615914 L0.0366270606,17.3960994 L0.146363692,16.2352071 L0.328776814,15.083496 L0.583146525,13.9455113 L0.908468944,12.8257442 L1.30346017,11.7286138 L1.76656136,10.6584501 L2.29594486,9.61947652 L2.88952143,8.61579335 L3.54494851,7.6513617 L4.25963941,6.72998774 L5.03077358,5.85530771 L5.85530771,5.03077358 L6.72998774,4.25963941 L7.6513617,3.54494851 L8.61579335,2.88952143 L9.61947652,2.29594486 L10.6584501,1.76656136 L11.7286138,1.30346017 L12.8257442,0.908468944 L13.9455113,0.583146525 L15.083496,0.328776814 L16.2352071,0.146363692 L17.3960994,0.0366270606 L18.5615914,-2.44249065e-15 Z M11.2571378,8.22182765 L11.2571378,16.6743829 C11.2571378,17.8414372 12.1891686,18.7875217 13.3388869,18.7875217 L13.5701924,18.7875217 L12.8230757,27.9585441 C12.7783963,28.4989062 12.9588995,29.0335378 13.3207116,29.4324896 C13.6825238,29.8314415 14.192513,30.0581806 14.7267197,30.0575953 C15.2615031,30.0587809 15.772297,29.8323985 16.134976,29.4334603 C16.497655,29.0345221 16.6790169,28.4995498 16.6349897,27.9585441 L15.883247,18.7875217 L16.1145525,18.7875217 C17.2642708,18.7875217 18.1963016,17.8414372 18.1963016,16.6743829 L18.1963016,8.22182765 C18.1963016,7.83280955 17.8856247,7.51744808 17.5023852,7.51744808 C17.1191458,7.51744808 16.8084689,7.83280955 16.8084688,8.22182765 L16.8084688,13.1524849 L15.4206361,13.1524849 L15.4206361,8.22182765 C15.4206361,7.83280954 15.1099591,7.51744805 14.7267197,7.51744805 C14.3434803,7.51744805 14.0328033,7.83280954 14.0328033,8.22182765 L14.0328033,13.1524849 L12.6449705,13.1524849 L12.6449705,8.22182765 C12.6449705,7.83280954 12.3342936,7.51744805 11.9510542,7.51744805 C11.5678147,7.51744805 11.2571378,7.83280954 11.2571378,8.22182765 Z M25.1354655,8.22182765 C25.1354655,7.83280954 24.8247885,7.51744805 24.4415491,7.51744805 C22.5253519,7.51744805 20.9719672,9.0942555 20.9719672,11.0393461 L20.9719672,17.3787625 C20.9719672,18.1567987 21.5933211,18.7875217 22.3597999,18.7875217 L22.8224108,18.7875217 L21.3420559,27.8012326 C21.2193495,28.5244693 21.5093276,29.256064 22.0912933,29.6915072 C22.6732591,30.1269504 23.4475155,30.191646 24.091796,29.8586658 C24.7360765,29.5256856 25.1400088,28.8520729 25.1354655,28.1182035 L25.1354655,8.22182765 Z"></path>
    </g>
</svg>