<svg width="50px" height="42px" viewBox="0 0 50 42" version="1.1" xmlns="http://www.w3.org/2000/svg" xmlns:xlink="http://www.w3.org/1999/xlink">
    <g transform="translate(9.000000, 1.000000)" fill-rule="nonzero">
        <path d="M5.82412659,32.0789223 L5.82412659,35.9383167 C5.82412659,37.0040591 6.6488108,37.868014 7.66611032,37.868014 L24.2439639,37.868014 C25.2612634,37.868014 26.0859476,37.0040591 26.0859476,35.9383167 L26.0859476,32.0789223 L5.82412659,32.0789223 Z"></path>
        <path d="M26.2562117,3.85709972 C25.1998729,3.85709972 24.240927,4.06333609 23.347534,4.49209064 C21.819214,1.72960879 19.2626492,0.238917857 15.9550351,0.238917857 C12.6474209,0.238917857 10.0908562,1.72960879 8.56440911,4.49028155 C7.65795711,4.06469998 6.6616759,3.8479619 5.65385848,3.85709972 C2.76578315,3.85709972 0.0350348826,6.4947543 0.0350348826,9.28437252 C0.0407598499,12.5826466 2.34925487,15.4620569 5.65385848,16.2927908 L5.65385848,29.1843728 L9.39974088,29.1843728 L9.39974088,23.7571 L11.2726821,23.7571 L11.2726821,29.1843728 L15.0185645,29.1843728 L15.0185645,20.1389181 L16.8915057,20.1389181 L16.8915057,29.1843728 L20.6373881,29.1843728 L20.6373881,23.7571 L22.5103293,23.7571 L22.5103293,29.1843728 L26.2562117,29.1843728 L26.2562117,16.2927908 C29.5608153,15.4620569 31.8693103,12.5826466 31.8750353,9.28437252 C31.8750353,6.4947543 29.144287,3.85709972 26.2562117,3.85709972 Z"></path>
    </g>
</svg>