<svg width="50px" height="42px" viewBox="0 0 50 42" version="1.1" xmlns="http://www.w3.org/2000/svg" xmlns:xlink="http://www.w3.org/1999/xlink">
    <g transform="translate(7.000000, 7.000000)" fill-rule="nonzero">
        <path d="M16.9734369,4.46139158 L16.9734369,26.7683495 C15.8418744,25.6530016 13.5787495,23.4223058 8.48671845,23.4223058 C6.11241799,23.40992 3.75101692,23.767044 1.48970199,24.4804921 C1.14458312,24.5939918 0.765147255,24.5370043 0.46998569,24.327341 C0.174824124,24.1176776 -5.7283704e-05,23.7809145 1.61411314e-08,23.4223058 L1.61411314e-08,3.34604369 C-5.32938602e-05,3.03467088 0.131947451,2.73745159 0.364080237,2.52626298 C1.9477019,1.08634885 5.43942075,0 8.48671845,0 C12.6576577,0 15.0820302,2.23515718 16.3850244,3.43555035 L16.6093567,3.64188972 C16.8414171,3.85301252 16.9734112,4.15011579 16.9734369,4.46139158 Z M19.2365618,4.46139158 L19.2365618,26.7683495 C20.3681243,25.6530016 22.6312492,23.4223058 27.7232802,23.4223058 C30.0975807,23.40992 32.4589818,23.767044 34.7202967,24.4804921 C35.0654258,24.5942579 35.4450096,24.5373812 35.7402484,24.3276629 C36.0354872,24.1179447 36.2103088,23.7810083 36.2099987,23.4223058 L36.2099987,3.34604369 C36.210052,3.03467088 36.0780512,2.73745159 35.8459185,2.52626298 C34.2622968,1.08662769 30.7708608,0 27.7232802,0 C23.5529068,0 21.1276856,2.23515718 19.8249743,3.43555035 C19.7466136,3.50804797 19.6724962,3.57664186 19.600642,3.64188972 C19.3685816,3.85301252 19.2365875,4.15011579 19.2365618,4.46139158 Z"></path>
    </g>
</svg>